<?xml version="1.0" encoding="iso-8859-1"?>
<!-- Uploaded to: SVG Repo, www.svgrepo.com, Generator: SVG Repo Mixer Tools -->
<svg version="1.1" id="Layer_1" xmlns="http://www.w3.org/2000/svg" xmlns:xlink="http://www.w3.org/1999/xlink" 
	 viewBox="0 0 512 512" xml:space="preserve">
<path id="SVGCleanerId_0" style="fill:#FFB547;" d="M397.373,239.049l-60.591-67.087c-6.464-7.157-15.656-11.241-25.298-11.241
	h-158.47c-9.841,0-19.202,4.252-25.674,11.664l-56.728,66.113c-3.126,3.643-7.687,5.739-12.487,5.739H30.457
	c-6.881,0-12.569,5.364-12.973,12.233l-4.575,77.896h489.83l-25.579-79.599c-1.611-6.201-7.209-10.53-13.615-10.53h-54.491
	C404.601,244.238,400.357,242.353,397.373,239.049z"/>
<g>
	<path id="SVGCleanerId_0_1_" style="fill:#FFB547;" d="M397.373,239.049l-60.591-67.087c-6.464-7.157-15.656-11.241-25.298-11.241
		h-158.47c-9.841,0-19.202,4.252-25.674,11.664l-56.728,66.113c-3.126,3.643-7.687,5.739-12.487,5.739H30.457
		c-6.881,0-12.569,5.364-12.973,12.233l-4.575,77.896h489.83l-25.579-79.599c-1.611-6.201-7.209-10.53-13.615-10.53h-54.491
		C404.601,244.238,400.357,242.353,397.373,239.049z"/>
</g>
<g>
	<path style="fill:#FF6361;" d="M486.504,283.846h-27.169c-2.641,0-4.781,2.14-4.781,4.781v15.112c0,2.641,2.14,4.781,4.781,4.781
		h35.098L486.504,283.846z"/>
	<path style="fill:#FF6361;" d="M36.475,283.846h-20.6l-1.45,24.675h22.048c2.641,0,4.781-2.14,4.781-4.781v-15.112
		C41.256,285.986,39.115,283.846,36.475,283.846z"/>
</g>
<g>
	<path style="fill:#99DAEA;" d="M252.62,241.626h97.076c5.892,0,8.995-6.984,5.044-11.356l-39.911-44.172
		c-1.289-1.427-3.121-2.24-5.044-2.24H252.42c-3.767,0-6.816,3.063-6.798,6.829l0.201,44.172
		C245.839,238.6,248.878,241.626,252.62,241.626z"/>
	<path style="fill:#99DAEA;" d="M213.733,183.856h-56.885c-1.987,0-3.875,0.869-5.166,2.38l-37.781,44.172
		c-3.774,4.412-0.639,11.218,5.166,11.218h94.666c3.755,0,6.798-3.043,6.798-6.798v-44.172
		C220.531,186.899,217.488,183.856,213.733,183.856z"/>
</g>
<path style="opacity:0.1;enable-background:new    ;" d="M497.981,319.563H35.776l4.425-75.326h-9.744
	c-6.881,0-12.569,5.364-12.973,12.233l-4.575,77.896h489.83L497.981,319.563z"/>
<path style="fill:#C3C6C8;" d="M42.177,345.916H7.636c-4.218,0-7.636-3.42-7.636-7.636v-22.123c0-4.218,3.42-7.636,7.636-7.636
	h34.54c4.217,0,7.636,3.418,7.636,7.636v22.123C49.814,342.497,46.395,345.916,42.177,345.916z"/>
<path style="opacity:0.15;enable-background:new    ;" d="M179.613,334.367c0-31.545-25.572-57.118-57.118-57.118
	c-31.544,0-57.118,25.572-57.118,57.118H179.613z"/>
<g>
	<circle style="fill:#333E48;" cx="122.493" cy="334.362" r="50.522"/>
	<circle style="fill:#333E48;" cx="122.493" cy="334.362" r="50.522"/>
</g>
<path style="opacity:0.15;enable-background:new    ;" d="M130.191,376.64c-27.903,0-50.522-22.619-50.522-50.522
	c0-11.269,3.693-21.674,9.931-30.078c-10.785,9.265-17.627,22.993-17.627,38.327c0,27.902,22.619,50.522,50.522,50.522
	c16.632,0,31.385-8.04,40.591-20.443C154.246,372.04,142.759,376.64,130.191,376.64z"/>
<circle style="fill:#D1D3D3;" cx="122.493" cy="334.362" r="21.863"/>
<path style="opacity:0.15;enable-background:new    ;" d="M430.946,334.367c0-31.545-25.572-57.118-57.118-57.118
	c-31.544,0-57.118,25.572-57.118,57.118H430.946z"/>
<g>
	<circle style="fill:#333E48;" cx="373.825" cy="334.362" r="50.522"/>
	<circle style="fill:#333E48;" cx="373.825" cy="334.362" r="50.522"/>
</g>
<circle style="fill:#D1D3D3;" cx="373.825" cy="334.362" r="21.863"/>
<path style="opacity:0.15;enable-background:new    ;" d="M381.524,376.64c-27.903,0-50.522-22.619-50.522-50.522
	c0-11.269,3.693-21.674,9.931-30.078c-10.785,9.265-17.627,22.993-17.627,38.327c0,27.902,22.619,50.522,50.522,50.522
	c16.632,0,31.385-8.04,40.591-20.443C405.58,372.04,394.092,376.64,381.524,376.64z"/>
<path style="fill:#C3C6C8;" d="M504.364,345.916h-51.403c-4.218,0-7.636-3.42-7.636-7.636v-22.123c0-4.218,3.418-7.636,7.636-7.636
	h51.403c4.218,0,7.636,3.418,7.636,7.636v22.123C512,342.497,508.582,345.916,504.364,345.916z"/>
<g>
	<path style="fill:#333E48;" d="M370.765,253.413h-30.196c-3.223,0-5.835-2.612-5.835-5.835v-14.477
		c0-3.223,2.612-5.835,5.835-5.835h30.196c3.223,0,5.835,2.612,5.835,5.835v14.477C376.6,250.801,373.988,253.413,370.765,253.413z"
		/>
	<rect x="174.308" y="268.985" style="fill:#333E48;" width="16.542" height="16.542"/>
</g>
<rect x="190.839" y="268.985" style="fill:#FFFFFF;" width="16.542" height="16.542"/>
<rect x="207.381" y="268.985" style="fill:#333E48;" width="16.542" height="16.542"/>
<rect x="223.912" y="268.985" style="fill:#FFFFFF;" width="16.542" height="16.542"/>
<rect x="240.454" y="268.985" style="fill:#333E48;" width="16.542" height="16.542"/>
<rect x="256.985" y="268.985" style="fill:#FFFFFF;" width="16.542" height="16.542"/>
<g>
	<rect x="273.528" y="268.985" style="fill:#333E48;" width="16.542" height="16.542"/>
	<rect x="190.839" y="285.516" style="fill:#333E48;" width="16.542" height="16.542"/>
</g>
<rect x="207.381" y="285.516" style="fill:#FFFFFF;" width="16.542" height="16.542"/>
<rect x="223.912" y="285.516" style="fill:#333E48;" width="16.542" height="16.542"/>
<rect x="240.454" y="285.516" style="fill:#FFFFFF;" width="16.542" height="16.542"/>
<rect x="256.985" y="285.516" style="fill:#333E48;" width="16.542" height="16.542"/>
<rect x="290.059" y="268.985" style="fill:#FFFFFF;" width="16.542" height="16.542"/>
<rect x="306.59" y="268.985" style="fill:#333E48;" width="16.542" height="16.542"/>
<rect x="273.528" y="285.516" style="fill:#FFFFFF;" width="16.542" height="16.542"/>
<rect x="290.059" y="285.516" style="fill:#333E48;" width="16.542" height="16.542"/>
<path style="fill:#C3C6C8;" d="M293.77,127.111h-10.2c-5.292,0-9.826,3.78-10.779,8.985l-4.508,24.625h40.776l-4.508-24.625
	C303.596,130.892,299.061,127.111,293.77,127.111z"/>
<path style="fill:#333E48;" d="M137.214,271.011h-24.958c-4.556,0-8.249-3.693-8.249-8.249c0-4.556,3.693-8.249,8.249-8.249h24.958
	c4.556,0,8.249,3.693,8.249,8.249C145.463,267.318,141.769,271.011,137.214,271.011z"/>
</svg>